<svg xmlns="http://www.w3.org/2000/svg" width="900" height="600" viewBox="0 0 900 600"><rect width="900" height="600" fill="#cda069"/><g opacity="0.35"><rect x="0" y="0" width="12" height="600" fill="#9f6f42"/><rect x="24" y="0" width="12" height="600" fill="#9f6f42"/><rect x="48" y="0" width="12" height="600" fill="#9f6f42"/><rect x="72" y="0" width="12" height="600" fill="#9f6f42"/><rect x="96" y="0" width="12" height="600" fill="#9f6f42"/><rect x="120" y="0" width="12" height="600" fill="#9f6f42"/><rect x="144" y="0" width="12" height="600" fill="#9f6f42"/><rect x="168" y="0" width="12" height="600" fill="#9f6f42"/><rect x="192" y="0" width="12" height="600" fill="#9f6f42"/><rect x="216" y="0" width="12" height="600" fill="#9f6f42"/><rect x="240" y="0" width="12" height="600" fill="#9f6f42"/><rect x="264" y="0" width="12" height="600" fill="#9f6f42"/><rect x="288" y="0" width="12" height="600" fill="#9f6f42"/><rect x="312" y="0" width="12" height="600" fill="#9f6f42"/><rect x="336" y="0" width="12" height="600" fill="#9f6f42"/><rect x="360" y="0" width="12" height="600" fill="#9f6f42"/><rect x="384" y="0" width="12" height="600" fill="#9f6f42"/><rect x="408" y="0" width="12" height="600" fill="#9f6f42"/><rect x="432" y="0" width="12" height="600" fill="#9f6f42"/><rect x="456" y="0" width="12" height="600" fill="#9f6f42"/><rect x="480" y="0" width="12" height="600" fill="#9f6f42"/><rect x="504" y="0" width="12" height="600" fill="#9f6f42"/><rect x="528" y="0" width="12" height="600" fill="#9f6f42"/><rect x="552" y="0" width="12" height="600" fill="#9f6f42"/><rect x="576" y="0" width="12" height="600" fill="#9f6f42"/><rect x="600" y="0" width="12" height="600" fill="#9f6f42"/><rect x="624" y="0" width="12" height="600" fill="#9f6f42"/><rect x="648" y="0" width="12" height="600" fill="#9f6f42"/><rect x="672" y="0" width="12" height="600" fill="#9f6f42"/><rect x="696" y="0" width="12" height="600" fill="#9f6f42"/><rect x="720" y="0" width="12" height="600" fill="#9f6f42"/><rect x="744" y="0" width="12" height="600" fill="#9f6f42"/><rect x="768" y="0" width="12" height="600" fill="#9f6f42"/><rect x="792" y="0" width="12" height="600" fill="#9f6f42"/><rect x="816" y="0" width="12" height="600" fill="#9f6f42"/><rect x="840" y="0" width="12" height="600" fill="#9f6f42"/><rect x="864" y="0" width="12" height="600" fill="#9f6f42"/><rect x="888" y="0" width="12" height="600" fill="#9f6f42"/></g><rect x="210" y="470" width="480" height="80" rx="10" fill="#ffffff"/><text x="450" y="522" text-anchor="middle" font-family="Arial, sans-serif" font-size="44" fill="#4a2d18">Oval Center Table</text></svg>